<svg width="17" height="24" viewBox="0 0 17 24" fill="none" xmlns="http://www.w3.org/2000/svg">
<path d="M8.50029 23.0344C8.33118 23.0344 8.16207 22.9693 8.02856 22.8297C7.71704 22.5041 0.445312 14.8374 0.445312 9.45959C0.445312 4.77957 4.05893 0.964844 8.50029 0.964844C12.9416 0.964844 16.5553 4.77957 16.5553 9.45959C16.5553 11.5996 15.4249 14.335 13.1909 17.5915L13.1731 17.6101L12.7191 18.2241C12.0071 19.1918 11.3307 20.1036 10.7165 20.8386C10.7076 20.8479 10.6987 20.8665 10.6809 20.8758L10.6542 20.9038C10.3249 21.2945 10.0312 21.6481 9.78196 21.9272L9.76416 21.9458C9.76416 21.9458 9.74636 21.9644 9.72856 21.983C9.71076 22.0017 9.71076 22.011 9.69296 22.0296C9.24793 22.5227 8.98091 22.8111 8.97201 22.8204C8.83851 22.96 8.6694 23.0251 8.50029 23.0251V23.0344ZM8.42908 6.36129C6.85369 6.36129 5.47411 7.80343 5.47411 9.45028C5.47411 11.0971 6.85369 12.5393 8.42908 12.5393C10.1202 12.5393 11.3841 11.2088 11.3841 9.45028C11.3841 7.69178 10.1113 6.36129 8.42908 6.36129Z" fill="#F0AB00"/>
<path d="M8.5 23.5C8.20628 23.5 7.92147 23.379 7.71675 23.1557C7.40524 22.8301 0 15.0425 0 9.45996C0 4.51942 3.81833 0.5 8.5 0.5C13.1817 0.5 17 4.51942 17 9.45996C17 11.7023 15.8429 14.5307 13.5466 17.8617L13.066 18.5129C12.345 19.4806 11.6686 20.3924 11.0545 21.146C10.6628 21.6112 10.3602 21.9648 10.111 22.2532C10.0665 22.3091 10.0487 22.3184 10.0309 22.3463C9.57696 22.858 9.30105 23.1464 9.28324 23.1557C9.06963 23.379 8.79372 23.5 8.5 23.5ZM8.5 1.43042C4.29895 1.43042 0.890052 5.03115 0.890052 9.45996C0.890052 14.661 8.26859 22.4207 8.34869 22.4951C8.4644 22.6161 8.5534 22.6161 8.66021 22.4951C8.66911 22.4858 8.93613 22.2067 9.37225 21.7136L9.44345 21.6299C9.70157 21.3321 9.99529 20.9879 10.3246 20.5971L10.3869 20.532C10.9921 19.7969 11.6597 18.8944 12.3717 17.9361L12.6476 17.5546V16.7079V17.5546L12.8257 17.322C15.0063 14.14 16.1099 11.4976 16.1099 9.45064C16.1099 5.02184 12.6921 1.42112 8.5 1.42112V1.43042ZM8.42879 13.0235C6.61309 13.0235 5.0288 11.358 5.0288 9.46925C5.0288 7.5805 6.62199 5.91504 8.42879 5.91504C10.3691 5.91504 11.8288 7.44094 11.8288 9.46925C11.8288 11.4976 10.3691 13.0235 8.42879 13.0235ZM8.42879 6.83616C7.09372 6.83616 5.91885 8.06432 5.91885 9.45996C5.91885 10.8556 7.09372 12.0837 8.42879 12.0837C9.86178 12.0837 10.9387 10.9579 10.9387 9.45996C10.9387 7.96198 9.86178 6.83616 8.42879 6.83616Z" fill="white"/>
</svg>
